<?xml version="1.0" encoding="UTF-8" ?>
<!DOCTYPE svg PUBLIC "-//W3C//DTD SVG 1.1//EN" "http://www.w3.org/Graphics/SVG/1.1/DTD/svg11.dtd">
<svg width="800pt" height="287pt" viewBox="0 0 800 287" version="1.1" xmlns="http://www.w3.org/2000/svg">
<g id="#000000ff">
<path fill="#000000" opacity="1.00" d=" M 758.71 41.03 C 759.80 41.01 760.89 41.00 762.00 40.99 C 762.00 53.74 762.00 66.50 762.00 79.25 C 761.18 79.25 759.55 79.25 758.73 79.25 C 758.42 76.43 757.54 72.65 753.98 72.60 C 726.25 72.37 698.49 72.56 670.75 72.51 C 670.75 80.09 670.74 87.67 670.75 95.25 C 688.52 95.20 706.29 95.35 724.05 95.18 C 727.58 95.32 729.01 91.67 729.25 88.74 C 730.06 88.74 731.68 88.75 732.50 88.76 C 732.52 101.07 732.48 113.38 732.52 125.69 C 731.43 125.73 730.35 125.78 729.27 125.82 C 728.97 122.86 727.67 119.15 724.05 119.30 C 706.29 119.17 688.52 119.29 670.76 119.25 C 670.74 128.50 670.75 137.75 670.75 147.00 C 697.54 146.98 724.34 147.04 751.13 146.97 C 755.13 147.24 757.55 143.49 758.52 140.10 C 759.67 140.05 760.83 140.00 762.00 139.96 C 761.99 152.39 762.01 164.82 762.00 177.26 C 761.31 177.25 759.93 177.24 759.24 177.24 C 758.45 175.83 757.73 174.37 756.72 173.11 C 755.27 172.38 753.62 172.31 752.04 172.25 C 709.53 172.25 667.03 172.25 624.52 172.25 C 624.50 171.07 624.48 169.88 624.48 168.70 C 627.37 167.97 632.40 168.18 632.42 164.04 C 632.58 128.03 632.49 92.00 632.47 55.98 C 632.84 51.51 627.52 51.40 624.46 50.76 C 624.47 49.58 624.49 48.41 624.53 47.24 C 667.01 47.27 709.49 47.22 751.97 47.27 C 753.87 47.27 756.02 47.04 757.39 45.53 C 758.26 44.20 758.29 42.53 758.71 41.03 Z" />
<path fill="#000000" opacity="1.00" d=" M 494.02 49.83 C 512.51 44.96 532.14 43.97 550.90 47.89 C 560.79 49.61 570.46 52.34 580.20 54.72 C 582.80 55.69 585.11 54.14 586.96 52.46 C 588.11 52.86 589.26 53.27 590.42 53.68 C 583.46 67.54 576.76 81.53 569.80 95.40 C 568.41 94.70 567.02 94.00 565.65 93.29 C 566.14 91.09 567.79 88.18 565.65 86.33 C 562.64 83.66 558.85 82.10 555.11 80.74 C 542.61 76.52 529.09 74.23 515.99 76.82 C 505.36 78.66 494.70 83.30 487.92 91.97 C 481.63 99.46 480.53 110.31 483.47 119.41 C 486.97 129.22 495.77 136.28 505.34 139.79 C 518.82 144.68 534.03 145.20 547.62 140.39 C 554.95 137.80 562.40 134.54 567.84 128.80 C 570.07 126.79 569.06 123.59 569.17 120.96 C 570.25 120.29 571.33 119.62 572.43 118.96 C 581.38 132.01 590.48 144.96 599.50 157.97 C 598.32 158.65 597.16 159.33 595.99 160.02 C 594.33 158.75 592.62 156.22 590.23 157.25 C 586.92 158.44 583.89 160.31 580.66 161.69 C 561.82 170.52 540.73 174.06 520.01 172.79 C 504.10 171.85 487.75 169.27 473.76 161.17 C 459.12 153.05 447.93 138.28 445.56 121.55 C 443.44 106.60 444.78 90.29 453.38 77.45 C 462.51 63.19 477.94 54.13 494.02 49.83 Z" />
<path fill="#000000" opacity="1.00" d=" M 65.54 171.74 C 89.52 130.03 113.59 88.37 137.70 46.74 C 144.67 58.72 151.58 70.75 158.52 82.76 C 152.22 82.70 145.91 82.86 139.61 82.64 C 134.19 91.35 129.27 100.37 124.09 109.23 C 140.65 109.27 157.22 109.26 173.78 109.23 C 177.89 116.29 181.98 123.35 186.02 130.45 C 162.06 130.56 138.11 130.50 114.16 130.48 C 110.58 137.68 106.84 144.80 103.26 152.00 C 135.09 152.11 166.92 151.78 198.74 152.16 C 202.24 158.81 206.21 165.20 209.89 171.74 C 161.77 171.75 113.66 171.76 65.54 171.74 Z" />
<path fill="#000000" opacity="1.00" d=" M 307.28 47.25 C 327.09 47.25 346.90 47.26 366.72 47.24 C 366.74 48.36 366.77 49.47 366.81 50.59 C 365.45 51.26 363.37 51.37 362.95 53.15 C 363.86 56.86 365.69 60.25 367.20 63.73 C 383.08 97.79 399.93 131.40 415.25 165.71 C 416.14 168.07 418.92 168.17 421.00 168.76 C 420.99 169.92 420.99 171.08 421.00 172.25 C 405.17 172.25 389.34 172.25 373.51 172.25 C 373.50 171.39 373.50 169.68 373.50 168.83 C 374.94 168.25 377.52 168.39 377.26 166.13 C 375.43 159.41 371.82 153.33 368.97 147.01 C 347.13 147.00 325.29 146.97 303.45 147.03 C 301.57 152.36 298.93 157.36 296.43 162.42 C 295.53 164.07 295.28 165.95 295.14 167.80 C 296.35 168.11 297.56 168.42 298.78 168.71 C 298.76 169.89 298.75 171.06 298.74 172.24 C 284.49 172.26 270.25 172.25 256.00 172.25 C 256.00 171.37 256.00 169.62 256.00 168.75 C 258.05 168.17 260.83 168.10 261.69 165.75 C 277.32 129.53 294.10 93.82 309.56 57.53 C 310.10 56.11 310.69 54.66 310.77 53.12 C 310.44 51.45 308.41 51.31 307.20 50.58 C 307.22 49.47 307.25 48.36 307.28 47.25 M 312.62 126.23 C 328.15 126.27 343.69 126.24 359.23 126.25 C 351.37 109.85 343.46 93.47 335.64 77.05 C 327.98 93.45 320.27 109.83 312.62 126.23 Z" />
<path fill="#000000" opacity="1.00" d=" M 740.08 202.76 C 741.00 202.77 742.84 202.78 743.75 202.78 C 745.28 209.03 755.14 208.91 756.70 202.73 C 757.59 202.74 759.38 202.77 760.27 202.79 C 759.69 204.84 759.32 207.13 757.73 208.70 C 754.15 212.63 747.50 212.70 743.44 209.49 C 741.33 207.88 740.79 205.15 740.08 202.76 Z" />
<path fill="#000000" opacity="1.00" d=" M 443.93 214.51 C 445.92 214.72 447.68 213.79 449.29 212.75 C 449.24 215.73 449.25 218.70 449.18 221.68 C 448.61 221.26 447.47 220.43 446.90 220.01 C 440.02 220.00 433.13 220.00 426.25 220.01 C 426.25 222.33 426.25 224.66 426.25 226.99 C 430.67 226.99 435.11 227.07 439.54 226.90 C 440.23 226.09 440.94 225.30 441.66 224.51 C 441.84 228.09 441.71 231.67 441.69 235.25 C 440.80 234.36 440.02 233.28 438.90 232.67 C 434.70 232.22 430.45 232.62 426.23 232.51 C 426.24 235.18 426.25 237.85 426.28 240.51 C 433.22 240.48 440.17 240.51 447.12 240.49 C 447.69 240.00 448.84 239.01 449.41 238.52 C 449.55 241.69 449.56 244.86 449.32 248.03 C 448.72 247.49 448.12 246.96 447.53 246.42 C 437.63 246.02 427.71 246.42 417.80 246.19 C 418.17 245.68 418.89 244.65 419.26 244.14 C 419.23 235.79 419.28 227.43 419.26 219.08 C 419.36 217.43 418.77 215.89 417.91 214.52 C 426.58 214.47 435.26 214.51 443.93 214.51 Z" />
<path fill="#000000" opacity="1.00" d=" M 561.25 212.68 C 562.09 213.28 562.93 213.89 563.77 214.50 C 572.17 214.47 580.57 214.53 588.97 214.50 C 590.71 214.70 592.10 213.57 593.52 212.75 C 593.49 215.92 593.50 219.09 593.44 222.27 C 592.62 221.61 591.81 220.95 591.01 220.28 C 587.59 220.24 584.17 220.24 580.76 220.25 C 580.85 228.13 580.54 236.03 580.87 243.90 C 581.32 244.49 582.23 245.66 582.68 246.25 C 579.30 246.23 575.93 246.25 572.56 246.26 C 573.22 244.94 573.88 243.56 573.77 242.03 C 573.76 234.77 573.74 227.51 573.75 220.25 C 570.34 220.23 566.93 220.25 563.53 220.28 C 562.80 220.93 562.08 221.57 561.36 222.22 C 561.25 219.04 561.22 215.86 561.25 212.68 Z" />
<path fill="#000000" opacity="1.00" d=" M 74.52 218.63 C 79.35 214.52 86.04 213.77 92.13 214.34 C 96.53 214.56 100.54 216.72 104.93 216.99 C 103.21 219.55 101.52 222.13 99.90 224.76 C 98.08 220.95 93.60 220.18 89.86 219.60 C 85.13 219.16 79.71 220.97 77.33 225.34 C 74.83 229.70 76.19 235.82 80.44 238.57 C 85.79 242.17 92.97 241.31 98.42 238.38 C 99.98 237.76 100.44 236.09 100.81 234.62 C 102.57 236.78 103.99 239.18 105.38 241.59 C 100.88 243.12 96.76 245.84 91.94 246.33 C 85.76 247.06 78.97 246.03 74.11 241.89 C 67.37 236.10 67.55 224.18 74.52 218.63 Z" />
<path fill="#000000" opacity="1.00" d=" M 457.55 214.57 C 463.69 214.41 469.83 214.53 475.97 214.49 C 479.99 214.45 484.10 214.90 488.03 213.76 C 487.99 216.66 488.03 219.57 487.91 222.48 C 487.10 221.75 486.35 220.96 485.68 220.11 C 479.45 219.87 473.22 220.06 467.00 220.00 C 467.00 222.00 467.00 224.00 467.00 226.00 C 473.37 226.31 479.94 225.18 486.16 226.95 C 491.60 228.60 492.82 235.46 491.08 240.21 C 489.70 244.34 485.03 246.27 480.96 246.25 C 473.16 246.24 465.36 246.32 457.56 246.17 C 458.10 245.71 459.18 244.79 459.72 244.33 C 459.78 235.08 459.76 225.82 459.73 216.57 C 458.99 215.91 458.26 215.24 457.55 214.57 M 467.00 231.51 C 467.00 234.50 467.00 237.50 467.00 240.50 C 471.65 240.33 476.35 240.89 480.97 240.19 C 484.94 239.66 486.18 233.02 481.91 232.00 C 477.02 230.96 471.96 231.72 467.00 231.51 Z" />
<path fill="#000000" opacity="1.00" d=" M 519.91 223.86 C 522.30 218.33 528.19 215.17 533.96 214.43 C 538.75 213.91 543.71 214.17 548.29 215.78 C 550.21 216.48 552.24 216.81 554.29 216.80 C 552.69 219.52 550.95 222.15 549.22 224.78 C 547.73 221.03 543.41 220.33 539.93 219.69 C 534.90 218.95 529.08 220.92 526.58 225.58 C 524.31 229.86 525.60 235.65 529.63 238.40 C 535.05 242.31 542.58 241.32 548.10 238.18 C 549.59 237.59 549.67 235.87 550.21 234.60 C 551.86 236.80 553.36 239.11 554.80 241.46 C 550.02 243.51 545.31 246.15 540.00 246.47 C 533.92 246.86 527.19 245.68 522.77 241.17 C 518.26 236.76 517.54 229.50 519.91 223.86 Z" />
<path fill="#000000" opacity="1.00" d=" M 684.96 214.57 C 688.51 214.50 692.09 214.33 695.63 214.75 C 695.04 215.23 693.85 216.19 693.26 216.67 C 693.25 223.16 693.23 229.65 693.27 236.14 C 699.42 229.73 705.38 223.15 711.48 216.69 C 711.33 216.14 711.02 215.05 710.87 214.50 C 714.66 214.47 718.45 214.50 722.24 214.56 C 721.65 215.26 721.06 215.96 720.48 216.65 C 720.52 225.85 720.50 235.06 720.49 244.26 C 720.95 244.74 721.88 245.69 722.35 246.17 C 718.88 246.28 715.41 246.24 711.95 246.25 C 712.38 245.69 713.22 244.56 713.64 244.00 C 713.93 237.38 713.67 230.73 713.72 224.10 C 707.56 230.85 701.05 237.32 695.17 244.29 C 695.26 244.79 695.44 245.77 695.53 246.26 C 692.03 246.25 688.53 246.23 685.04 246.25 C 686.14 245.11 687.02 243.75 686.76 242.09 C 686.76 233.56 686.73 225.04 686.76 216.52 C 686.15 215.87 685.55 215.22 684.96 214.57 Z" />
<path fill="#000000" opacity="1.00" d=" M 732.00 214.60 C 735.41 214.49 738.81 214.46 742.23 214.54 C 741.57 215.21 740.91 215.89 740.26 216.56 C 740.23 223.03 740.26 229.50 740.24 235.97 C 746.29 229.65 752.13 223.14 758.20 216.84 C 758.13 216.25 758.01 215.09 757.95 214.50 C 761.60 214.45 765.25 214.57 768.92 214.49 C 768.18 215.50 767.18 216.50 767.29 217.86 C 767.16 225.91 767.29 233.96 767.24 242.01 C 766.98 243.70 767.80 245.10 768.97 246.25 C 765.49 246.25 762.02 246.29 758.56 246.14 C 759.10 245.69 760.18 244.80 760.73 244.36 C 760.76 237.52 760.76 230.68 760.73 223.84 C 754.49 230.66 748.02 237.28 741.93 244.21 C 742.12 244.72 742.49 245.75 742.68 246.26 C 739.21 246.24 735.74 246.24 732.28 246.26 C 733.19 244.66 733.66 242.87 733.53 241.03 C 733.48 232.90 733.47 224.78 733.53 216.66 C 733.01 215.97 732.50 215.28 732.00 214.60 Z" />
<path fill="#000000" opacity="1.00" d=" M 113.86 214.50 C 120.94 214.52 128.01 214.49 135.08 214.48 C 138.48 214.55 142.21 214.87 144.95 217.10 C 148.14 219.68 148.44 224.47 147.02 228.06 C 145.68 231.10 142.25 232.09 139.40 233.16 C 142.90 237.47 145.11 242.98 149.80 246.19 C 145.60 246.26 141.40 246.33 137.21 246.14 C 137.67 245.68 138.60 244.75 139.06 244.29 C 136.52 240.75 133.96 237.22 131.57 233.57 C 128.71 233.49 125.86 233.49 123.00 233.50 C 123.01 237.04 123.01 240.59 122.94 244.13 C 123.77 244.81 124.59 245.49 125.42 246.17 C 121.46 246.29 117.49 246.30 113.53 246.13 C 114.35 245.50 115.18 244.87 116.01 244.25 C 115.98 235.82 116.01 227.39 116.02 218.97 C 116.36 217.07 115.11 215.70 113.86 214.50 M 123.00 220.00 C 123.00 222.83 123.00 225.66 123.00 228.49 C 127.96 228.25 133.07 229.13 137.93 227.90 C 141.26 227.04 141.69 221.87 138.37 220.74 C 133.41 219.24 128.10 220.31 123.00 220.00 Z" />
<path fill="#000000" opacity="1.00" d=" M 157.97 214.54 C 161.89 214.48 165.81 214.45 169.73 214.58 C 167.87 217.30 170.62 219.82 171.70 222.24 C 173.99 225.71 175.28 229.97 178.13 233.00 C 181.19 227.63 184.45 222.32 187.08 216.74 C 186.91 216.18 186.57 215.07 186.40 214.52 C 190.33 214.49 194.26 214.53 198.18 214.45 C 196.26 216.89 196.76 220.06 196.73 222.94 C 196.78 230.01 196.73 237.07 196.75 244.14 C 197.16 244.67 197.97 245.72 198.38 246.24 C 194.76 246.27 191.15 246.28 187.53 246.14 C 188.09 245.70 189.20 244.83 189.75 244.39 C 189.75 237.79 189.73 231.19 189.77 224.59 C 185.76 231.95 181.74 239.30 177.70 246.64 C 173.53 239.41 169.87 231.91 165.77 224.64 C 165.75 230.45 165.73 236.25 165.73 242.06 C 165.39 243.94 166.60 245.28 168.07 246.24 C 164.64 246.22 161.23 246.29 157.81 246.19 C 158.17 245.68 158.89 244.66 159.25 244.15 C 159.26 236.12 159.22 228.08 159.29 220.05 C 159.42 218.10 158.94 216.21 157.97 214.54 Z" />
<path fill="#000000" opacity="1.00" d=" M 237.94 214.65 C 242.03 214.40 246.13 214.48 250.23 214.56 C 249.79 215.17 248.90 216.39 248.46 216.99 C 252.21 225.17 256.75 232.98 260.81 241.02 C 262.46 241.01 264.11 241.00 265.77 241.00 C 265.93 244.86 264.90 249.12 267.18 252.55 C 264.18 252.50 261.19 252.49 258.20 252.42 C 259.36 250.57 259.55 248.41 259.68 246.29 C 249.58 246.24 239.48 246.19 229.39 246.32 C 229.42 247.28 229.50 249.20 229.54 250.17 C 230.00 250.70 230.91 251.77 231.36 252.31 C 228.12 252.58 224.87 252.58 221.64 252.31 C 222.10 251.77 223.03 250.69 223.50 250.15 C 223.50 247.09 223.50 244.04 223.49 240.98 C 225.08 241.01 226.67 241.05 228.26 241.10 C 232.17 233.03 236.42 225.10 239.94 216.85 C 239.44 216.30 238.44 215.20 237.94 214.65 M 243.58 222.60 C 240.88 228.77 237.99 234.86 235.21 240.99 C 241.05 241.00 246.88 241.00 252.72 241.00 C 249.63 234.89 247.07 228.50 243.58 222.60 Z" />
<path fill="#000000" opacity="1.00" d=" M 281.79 214.47 C 285.43 214.51 289.07 214.48 292.72 214.56 C 292.26 215.15 291.33 216.32 290.87 216.91 C 295.02 225.16 299.31 233.34 303.43 241.61 C 304.30 243.37 305.70 244.77 307.01 246.20 C 303.06 246.27 299.11 246.25 295.17 246.25 C 295.47 245.73 296.08 244.69 296.39 244.17 C 293.56 236.97 289.76 230.17 286.65 223.09 C 283.72 230.24 280.18 237.14 277.38 244.35 C 277.79 244.82 278.62 245.76 279.04 246.23 C 275.58 246.23 272.14 246.26 268.69 246.26 C 272.29 241.28 274.30 235.42 277.10 230.00 C 279.01 225.66 281.39 221.53 283.10 217.11 C 282.77 216.45 282.12 215.13 281.79 214.47 Z" />
<path fill="#000000" opacity="1.00" d=" M 315.47 217.47 C 318.29 214.93 322.30 214.53 325.95 214.48 C 333.00 214.49 340.06 214.50 347.12 214.51 C 345.73 215.68 344.60 217.10 344.97 219.04 C 345.02 227.51 344.98 235.98 345.01 244.45 C 345.64 244.87 346.89 245.70 347.52 246.12 C 343.58 246.29 339.64 246.26 335.70 246.25 C 339.57 243.19 337.08 237.70 337.74 233.50 C 334.92 233.50 332.10 233.50 329.29 233.49 C 326.72 237.09 324.17 240.71 321.66 244.35 C 322.10 244.82 322.98 245.75 323.42 246.22 C 319.37 246.29 315.32 246.24 311.27 246.23 C 315.64 242.72 318.07 237.53 321.47 233.18 C 318.61 232.13 315.21 231.09 313.86 228.06 C 312.38 224.65 312.76 220.18 315.47 217.47 M 322.64 220.66 C 319.21 221.77 319.51 227.28 323.07 227.97 C 327.87 229.06 332.85 228.27 337.73 228.51 C 337.74 225.67 337.75 222.84 337.76 220.01 C 332.74 220.29 327.53 219.28 322.64 220.66 Z" />
<path fill="#000000" opacity="1.00" d=" M 374.20 214.46 C 380.79 214.56 387.38 214.45 393.97 214.49 C 397.97 214.55 402.27 215.08 405.51 217.63 C 408.00 219.61 408.74 223.41 407.24 226.20 C 406.16 227.90 404.29 228.81 402.62 229.83 C 404.58 230.95 406.95 231.86 408.02 234.01 C 409.32 236.85 409.11 240.62 406.84 242.93 C 404.62 245.33 401.23 246.23 398.06 246.25 C 390.09 246.31 382.12 246.16 374.16 246.31 C 375.32 245.12 376.59 243.84 376.27 242.02 C 376.24 234.35 376.25 226.69 376.27 219.03 C 376.54 217.16 375.38 215.72 374.20 214.46 M 383.25 220.01 C 383.25 222.33 383.25 224.66 383.25 226.99 C 388.34 226.89 393.53 227.42 398.56 226.36 C 401.60 225.98 401.53 221.02 398.64 220.43 C 393.58 219.50 388.37 220.21 383.25 220.01 M 383.26 232.25 C 383.26 234.99 383.24 237.72 383.19 240.45 C 387.79 240.43 392.40 240.69 397.00 240.40 C 398.84 240.29 400.95 239.43 401.49 237.49 C 402.41 235.32 400.34 233.01 398.23 232.69 C 393.30 231.80 388.24 232.42 383.26 232.25 Z" />
<path fill="#000000" opacity="1.00" d=" M 595.81 214.56 C 600.34 214.46 604.88 214.47 609.42 214.55 C 608.91 215.10 607.89 216.19 607.39 216.74 C 610.26 221.09 613.04 225.49 615.89 229.86 C 618.49 225.53 621.12 221.23 623.73 216.92 C 623.19 216.33 622.12 215.15 621.58 214.56 C 625.63 214.43 629.68 214.48 633.73 214.59 C 632.25 215.89 630.76 217.22 629.80 218.96 C 624.69 227.43 619.59 235.91 614.37 244.31 C 615.00 245.07 615.62 245.85 616.26 246.62 C 612.04 246.69 607.75 247.19 603.60 246.19 C 604.40 245.82 605.99 245.08 606.78 244.70 C 608.62 241.87 610.36 238.97 612.08 236.06 C 608.20 230.57 604.38 225.03 600.56 219.50 C 599.29 217.58 597.51 216.08 595.81 214.56 Z" />
<path fill="#000000" opacity="1.00" d=" M 650.64 214.53 C 654.64 214.47 658.64 214.48 662.65 214.56 C 662.18 215.19 661.23 216.44 660.76 217.07 C 664.91 225.06 669.07 233.03 673.27 240.99 C 674.84 241.00 676.41 241.00 678.00 241.00 C 677.99 244.01 677.99 247.02 678.00 250.04 C 678.55 250.60 679.63 251.72 680.18 252.27 C 677.07 252.51 673.96 252.52 670.86 252.56 C 671.91 250.61 671.98 248.40 672.11 246.25 C 662.07 246.25 652.04 246.26 642.01 246.24 C 642.00 247.55 641.99 248.87 641.99 250.18 C 642.44 250.70 643.35 251.75 643.81 252.27 C 640.61 252.61 637.39 252.61 634.19 252.27 C 634.65 251.75 635.55 250.70 636.00 250.17 C 636.00 247.11 635.99 244.06 636.00 241.00 C 637.59 241.00 639.18 241.00 640.78 241.00 C 644.68 233.02 648.74 225.11 652.43 217.03 C 651.98 216.40 651.09 215.15 650.64 214.53 M 656.11 222.50 C 653.36 228.69 650.46 234.82 647.68 241.00 C 653.53 241.00 659.38 241.00 665.23 241.00 C 662.10 234.87 659.42 228.53 656.11 222.50 Z" />
<path fill="#000000" opacity="1.00" d=" M 498.31 228.95 C 499.09 229.39 499.88 229.83 500.68 230.28 C 503.87 230.25 507.07 230.23 510.27 230.28 C 511.07 229.80 511.87 229.33 512.68 228.86 C 512.74 231.61 512.74 234.36 512.66 237.12 C 511.87 236.65 511.09 236.18 510.31 235.72 C 507.10 235.76 503.89 235.76 500.69 235.72 C 499.90 236.19 499.12 236.65 498.35 237.12 C 498.25 234.40 498.24 231.67 498.31 228.95 Z" />
</g>
</svg>
