<?xml version="1.0" encoding="UTF-8" ?>
<!DOCTYPE svg PUBLIC "-//W3C//DTD SVG 1.1//EN" "http://www.w3.org/Graphics/SVG/1.1/DTD/svg11.dtd">
<svg width="800pt" height="240pt" viewBox="0 0 800 240" version="1.1" xmlns="http://www.w3.org/2000/svg">
<g id="#444444ff">
<path fill="#444444" opacity="1.00" d=" M 741.08 30.07 C 741.87 30.07 743.46 30.06 744.25 30.06 C 744.25 45.39 744.25 60.73 744.25 76.06 C 743.45 76.06 741.86 76.05 741.07 76.05 C 740.14 73.22 739.29 69.99 736.64 68.25 C 735.00 67.10 732.92 67.16 731.02 67.11 C 706.68 67.14 682.34 67.12 658.00 67.12 C 658.00 78.35 657.99 89.59 658.01 100.82 C 673.68 100.76 689.36 100.90 705.03 100.75 C 709.74 100.69 711.82 95.76 713.05 91.95 C 713.79 91.95 715.26 91.94 716.00 91.94 C 716.00 106.98 716.00 122.02 716.00 137.06 C 715.26 137.06 713.79 137.05 713.06 137.05 C 711.83 133.21 709.76 128.31 705.03 128.20 C 689.36 128.02 673.68 128.18 658.01 128.12 C 658.00 140.63 657.98 153.13 658.02 165.63 C 684.04 165.59 710.07 165.67 736.09 165.60 C 741.00 165.84 743.65 161.02 745.04 157.02 C 745.78 157.01 747.26 157.00 748.00 156.99 C 748.00 172.12 748.01 187.25 747.99 202.38 C 747.26 202.38 745.79 202.36 745.06 202.36 C 743.76 198.33 740.97 193.62 736.07 194.07 C 697.69 194.04 659.31 194.08 620.93 194.06 C 620.93 192.82 620.94 191.58 620.96 190.34 C 625.15 188.71 628.23 184.69 627.96 180.09 C 628.04 137.70 628.00 95.30 627.98 52.91 C 628.38 48.26 625.18 44.26 620.97 42.69 C 620.94 41.36 620.93 40.02 620.93 38.69 C 658.29 38.66 695.65 38.74 733.01 38.65 C 737.75 38.80 740.03 33.96 741.08 30.07 Z" />
<path fill="#444444" opacity="1.00" d=" M 480.60 57.57 C 490.39 46.23 504.38 38.85 519.15 36.60 C 531.57 34.77 544.48 35.01 556.59 38.49 C 570.32 42.64 581.85 51.47 593.62 59.31 C 595.97 61.38 598.54 59.40 600.57 57.93 C 601.34 58.74 602.12 59.54 602.91 60.34 C 596.59 71.71 590.30 83.11 583.93 94.46 C 582.68 93.22 581.22 91.97 581.36 90.03 C 580.93 82.24 575.21 75.95 568.68 72.31 C 556.69 65.60 542.27 63.60 528.80 65.90 C 516.83 68.00 506.23 75.48 499.52 85.51 C 490.14 98.88 488.26 116.46 492.17 132.07 C 496.17 147.71 508.11 161.78 523.95 166.14 C 537.53 169.83 552.38 168.04 565.01 161.96 C 573.60 158.27 581.68 150.72 581.60 140.71 C 582.38 140.00 583.17 139.30 583.97 138.60 C 590.30 149.88 596.64 161.15 602.92 172.46 C 602.10 173.24 601.31 174.03 600.51 174.82 C 598.87 173.97 597.11 171.69 595.13 172.79 C 583.34 178.76 573.97 189.08 561.02 192.81 C 543.33 197.87 523.93 198.43 506.44 192.30 C 489.50 186.35 476.08 172.69 468.42 156.68 C 460.30 139.79 458.67 120.42 460.90 102.00 C 462.90 85.69 469.47 69.78 480.60 57.57 Z" />
<path fill="#444444" opacity="1.00" d=" M 348.00 38.69 C 364.06 38.69 380.12 38.68 396.19 38.69 C 396.18 40.02 396.17 41.36 396.17 42.69 C 393.56 44.27 390.99 46.37 390.33 49.51 C 389.25 54.47 391.47 59.33 393.21 63.86 C 409.47 102.26 425.57 140.73 441.94 179.08 C 443.85 184.19 447.40 189.03 452.99 190.34 C 452.99 191.57 452.99 192.82 453.00 194.06 C 436.06 194.06 419.13 194.07 402.19 194.06 C 402.18 192.82 402.17 191.59 402.17 190.35 C 406.49 189.52 410.04 185.47 409.03 180.92 C 406.70 172.07 402.95 163.67 399.73 155.13 C 380.77 155.12 361.82 155.13 342.86 155.12 C 339.94 162.82 336.93 170.51 334.61 178.42 C 333.76 181.13 333.58 184.27 335.19 186.75 C 336.35 188.77 338.70 189.47 340.70 190.35 C 340.80 191.58 340.91 192.82 341.02 194.06 C 325.93 194.06 310.84 194.07 295.75 194.06 C 295.75 192.83 295.75 191.61 295.75 190.39 C 299.90 190.08 303.08 186.96 304.20 183.07 C 319.87 143.96 335.14 104.69 350.68 65.52 C 352.65 60.56 354.54 55.23 353.79 49.81 C 353.23 46.59 350.57 44.43 348.01 42.71 C 348.00 41.37 348.00 40.03 348.00 38.69 M 370.60 83.96 C 364.16 100.48 357.68 116.98 351.23 133.49 C 364.33 133.50 377.43 133.50 390.53 133.49 C 383.90 116.98 377.27 100.46 370.60 83.96 Z" />
</g>
<g id="#000000ff">
<path fill="#000000" opacity="1.00" d=" M 166.17 50.16 C 169.36 44.78 172.27 39.24 175.69 34.00 C 184.75 49.80 193.86 65.57 203.03 81.30 C 194.56 81.38 186.09 81.28 177.62 81.35 C 170.87 92.97 164.16 104.61 157.43 116.24 C 179.40 116.27 201.36 116.12 223.32 116.32 C 228.49 125.67 234.09 134.78 239.24 144.15 C 207.62 144.19 175.99 144.08 144.36 144.20 C 139.61 153.74 134.70 163.20 129.88 172.71 C 171.88 172.79 213.87 172.71 255.87 172.75 C 260.87 181.30 265.71 189.95 270.81 198.44 C 207.32 198.50 143.83 198.51 80.34 198.43 C 109.08 149.08 137.53 99.57 166.17 50.16 Z" />
</g>
</svg>
