<?xml version="1.0" encoding="UTF-8" ?>
<!DOCTYPE svg PUBLIC "-//W3C//DTD SVG 1.1//EN" "http://www.w3.org/Graphics/SVG/1.1/DTD/svg11.dtd">
<svg width="600pt" height="334pt" viewBox="0 0 600 334" version="1.1" xmlns="http://www.w3.org/2000/svg">
<g id="#000000ff">
<path fill="#000000" opacity="1.00" d=" M 167.59 269.23 C 214.42 188.10 261.26 106.97 308.11 25.86 C 321.63 49.22 335.11 72.61 348.60 95.99 C 336.13 96.01 323.66 96.00 311.19 96.00 C 301.16 113.11 291.34 130.34 281.39 147.50 C 313.71 147.50 346.03 147.50 378.35 147.50 C 386.30 161.24 394.20 175.01 402.18 188.73 C 355.51 188.78 308.85 188.72 262.18 188.76 C 255.03 202.94 247.74 217.04 240.65 231.24 C 302.67 231.26 364.69 231.25 426.71 231.25 C 434.02 243.91 441.32 256.58 448.65 269.23 C 354.96 269.26 261.28 269.26 167.59 269.23 Z" />
<path fill="#000000" opacity="1.00" d=" M 442.63 285.90 C 445.33 287.22 448.10 287.59 450.74 285.84 C 449.84 287.29 449.01 289.31 446.96 289.26 C 444.70 289.64 443.60 287.48 442.63 285.90 Z" />
<path fill="#000000" opacity="1.00" d=" M 162.23 290.07 C 163.23 290.04 164.23 290.01 165.23 289.99 C 166.47 293.98 168.50 297.65 170.58 301.25 C 169.67 301.25 167.85 301.26 166.94 301.27 C 166.71 300.56 166.24 299.16 166.00 298.46 C 164.43 298.48 162.87 298.51 161.30 298.56 C 160.51 300.30 159.28 301.57 157.23 301.61 C 158.94 297.78 161.05 294.11 162.23 290.07 M 163.84 297.29 C 165.30 296.79 165.01 294.54 163.83 293.91 C 161.73 293.51 161.54 297.86 163.84 297.29 Z" />
<path fill="#000000" opacity="1.00" d=" M 174.24 291.18 C 177.36 289.03 181.35 290.25 184.78 290.82 C 184.37 291.48 183.55 292.79 183.14 293.44 C 180.31 291.27 174.49 291.31 174.57 295.95 C 175.48 300.42 181.13 299.64 183.88 297.37 C 184.19 298.20 184.50 299.05 184.81 299.89 C 181.74 300.94 178.35 302.29 175.19 300.73 C 171.41 299.25 170.83 293.38 174.24 291.18 Z" />
<path fill="#000000" opacity="1.00" d=" M 188.14 289.99 C 191.76 290.04 195.39 290.05 199.01 289.75 C 199.02 290.39 199.03 291.66 199.03 292.30 C 196.36 292.05 193.68 291.99 191.00 291.94 C 191.00 292.60 191.00 293.93 191.00 294.59 C 192.85 294.48 194.70 294.35 196.55 294.20 C 196.56 294.84 196.59 296.11 196.61 296.74 C 194.74 296.62 192.87 296.51 191.00 296.43 C 191.00 297.15 191.00 298.59 191.00 299.32 C 193.69 299.30 196.38 299.18 199.05 298.81 C 199.04 299.49 199.02 300.83 199.00 301.50 C 195.41 301.19 191.80 301.20 188.20 301.28 C 188.28 297.52 188.28 293.75 188.14 289.99 Z" />
<path fill="#000000" opacity="1.00" d=" M 209.56 291.54 C 212.61 288.92 216.90 290.20 220.45 290.82 C 220.07 291.49 219.33 292.83 218.95 293.50 C 216.68 292.23 213.35 290.92 211.29 293.29 C 209.32 295.10 210.60 298.52 213.10 299.03 C 215.35 299.91 217.48 298.50 219.39 297.50 C 219.72 298.05 220.38 299.16 220.71 299.71 C 217.71 300.94 214.32 302.28 211.13 300.81 C 207.36 299.60 206.53 293.95 209.56 291.54 Z" />
<path fill="#000000" opacity="1.00" d=" M 223.74 289.96 C 227.40 290.35 231.70 289.01 234.91 291.24 C 236.58 293.51 234.79 295.83 232.84 297.08 C 233.88 298.48 234.93 299.88 235.98 301.28 C 235.12 301.27 233.41 301.26 232.55 301.25 C 231.19 299.00 229.79 296.35 226.75 296.39 C 226.76 298.02 226.79 299.64 226.86 301.28 C 226.18 301.28 224.83 301.27 224.15 301.27 C 224.34 297.50 224.41 293.69 223.74 289.96 M 226.75 295.15 C 228.85 294.70 232.29 295.79 233.09 293.05 C 231.22 291.77 228.88 292.05 226.75 291.85 C 226.75 292.95 226.75 294.04 226.75 295.15 Z" />
<path fill="#000000" opacity="1.00" d=" M 239.14 289.98 C 240.35 289.99 241.56 290.01 242.78 290.03 C 243.68 292.25 244.77 294.38 245.88 296.50 C 247.17 294.40 248.35 292.23 249.39 290.00 C 250.55 289.99 251.70 289.99 252.86 289.99 C 252.71 293.75 252.72 297.51 252.80 301.27 C 251.82 301.28 250.84 301.29 249.86 301.30 C 249.96 298.89 249.99 296.47 250.03 294.07 C 248.65 296.57 247.27 299.08 245.88 301.58 C 244.50 299.04 243.12 296.50 241.75 293.97 C 241.75 296.39 241.78 298.84 241.84 301.27 C 241.18 301.28 239.86 301.29 239.20 301.30 C 239.27 297.52 239.28 293.75 239.14 289.98 Z" />
<path fill="#000000" opacity="1.00" d=" M 267.66 290.00 C 268.69 290.00 269.72 290.00 270.76 290.01 C 272.11 293.58 273.32 297.62 276.67 299.86 C 276.76 301.08 276.84 302.30 276.93 303.52 C 276.29 303.53 275.00 303.55 274.36 303.55 C 274.40 302.98 274.48 301.82 274.52 301.25 C 271.08 301.25 267.65 301.25 264.22 301.25 C 264.27 301.81 264.37 302.95 264.42 303.51 C 263.72 303.52 262.30 303.53 261.59 303.54 C 261.80 302.29 261.99 301.04 262.15 299.79 C 265.42 297.56 266.34 293.48 267.66 290.00 M 266.27 299.26 C 268.17 299.25 270.07 299.25 271.98 299.26 C 271.02 297.19 270.05 295.13 269.07 293.07 C 268.13 295.13 267.20 297.19 266.27 299.26 Z" />
<path fill="#000000" opacity="1.00" d=" M 282.78 289.99 C 283.77 290.01 284.76 290.04 285.76 290.07 C 286.95 294.05 289.08 297.64 291.12 301.23 C 290.28 301.24 288.58 301.27 287.73 301.29 C 286.58 298.64 285.38 296.02 284.12 293.43 C 282.94 296.03 281.77 298.64 280.68 301.28 C 279.96 301.27 278.53 301.26 277.82 301.25 C 279.70 297.61 281.63 293.95 282.78 289.99 Z" />
<path fill="#000000" opacity="1.00" d=" M 293.98 291.02 C 297.33 289.23 301.35 290.25 304.99 289.95 C 304.23 293.68 304.43 297.51 304.71 301.28 C 303.96 301.28 302.45 301.30 301.70 301.30 C 301.86 299.78 301.99 298.27 302.09 296.75 C 301.37 296.75 299.93 296.74 299.21 296.74 C 297.69 299.14 296.26 302.19 292.79 301.48 C 293.81 299.98 294.85 298.50 295.89 297.02 C 293.76 295.81 292.28 293.23 293.98 291.02 M 295.78 293.97 C 297.57 295.29 299.91 294.89 302.00 295.14 C 302.00 294.32 302.00 292.68 302.00 291.85 C 299.95 292.33 296.37 291.19 295.78 293.97 Z" />
<path fill="#000000" opacity="1.00" d=" M 315.24 289.98 C 318.73 290.25 322.70 289.20 325.83 291.13 C 327.70 292.27 326.18 294.46 325.49 295.82 C 325.95 296.11 326.85 296.67 327.30 296.95 C 326.86 298.42 326.78 300.50 324.99 301.01 C 321.80 301.54 318.54 301.18 315.33 301.28 C 315.58 297.52 315.59 293.73 315.24 289.98 M 318.00 291.89 C 318.00 292.49 318.00 293.69 318.00 294.29 C 320.19 294.25 322.39 294.19 324.59 294.04 C 323.39 291.35 320.35 292.13 318.00 291.89 M 318.02 296.42 C 318.01 297.15 318.00 298.61 317.99 299.34 C 320.25 299.17 322.79 299.58 324.71 298.07 C 323.40 295.59 320.26 296.78 318.02 296.42 Z" />
<path fill="#000000" opacity="1.00" d=" M 330.39 290.00 C 334.02 290.03 337.65 290.03 341.28 289.80 C 341.28 290.41 341.27 291.63 341.27 292.24 C 338.60 292.04 335.92 292.01 333.24 291.94 C 333.25 292.60 333.26 293.92 333.27 294.58 C 335.04 294.49 336.82 294.40 338.59 294.29 C 338.60 294.88 338.63 296.07 338.64 296.67 C 336.84 296.57 335.05 296.50 333.26 296.44 C 333.26 297.16 333.26 298.61 333.26 299.33 C 335.94 299.27 338.62 299.18 341.29 298.88 C 341.29 299.52 341.29 300.80 341.28 301.45 C 337.68 301.22 334.06 301.21 330.45 301.26 C 330.52 297.51 330.53 293.75 330.39 290.00 Z" />
<path fill="#000000" opacity="1.00" d=" M 344.50 289.99 C 347.89 290.01 351.29 290.01 354.68 289.89 C 354.75 290.55 354.89 291.85 354.95 292.50 C 352.49 292.10 349.99 291.97 347.50 291.88 C 347.50 292.39 347.50 293.41 347.50 293.92 C 350.55 293.93 353.84 293.74 356.36 295.78 C 355.89 297.62 356.24 300.31 353.97 301.04 C 350.86 301.46 347.71 301.22 344.59 301.28 C 344.82 297.52 344.84 293.74 344.50 289.99 M 347.51 299.40 C 349.70 299.33 351.91 299.10 353.92 298.16 C 353.66 297.69 353.13 296.76 352.87 296.29 C 351.08 296.14 349.28 296.01 347.50 295.90 C 347.50 297.07 347.50 298.23 347.51 299.40 Z" />
<path fill="#000000" opacity="1.00" d=" M 367.89 290.95 C 371.03 289.14 374.77 290.24 378.10 290.82 C 377.61 291.69 377.12 292.57 376.63 293.45 C 374.51 292.45 371.94 291.20 369.69 292.62 C 367.14 293.84 367.53 297.96 370.14 298.86 C 372.51 300.00 375.02 298.74 376.98 297.40 C 377.33 297.98 378.02 299.14 378.36 299.72 C 375.21 300.94 371.59 302.42 368.35 300.58 C 364.56 298.97 364.40 292.96 367.89 290.95 Z" />
<path fill="#000000" opacity="1.00" d=" M 380.20 289.74 C 384.05 290.12 387.94 290.12 391.80 289.74 C 391.82 290.45 391.84 291.86 391.86 292.56 C 390.32 292.38 388.78 292.25 387.24 292.15 C 387.24 295.19 387.25 298.24 387.40 301.28 C 386.70 301.28 385.30 301.28 384.60 301.28 C 384.74 298.24 384.75 295.19 384.76 292.15 C 383.21 292.25 381.67 292.38 380.14 292.56 C 380.16 291.85 380.18 290.45 380.20 289.74 Z" />
<path fill="#000000" opacity="1.00" d=" M 392.25 289.89 C 393.74 289.95 395.22 290.02 396.72 290.11 C 397.57 291.94 398.56 293.70 399.58 295.45 C 400.52 293.68 401.46 291.92 402.28 290.09 C 403.50 290.03 404.72 289.98 405.94 289.93 C 403.33 293.58 400.83 297.36 399.13 301.53 C 397.87 301.53 396.62 301.53 395.38 301.53 C 396.32 300.28 397.25 299.02 398.19 297.76 C 396.34 295.04 394.46 292.33 392.25 289.89 Z" />
<path fill="#000000" opacity="1.00" d=" M 412.24 290.06 C 413.32 290.03 414.40 290.01 415.49 289.99 C 416.46 293.10 417.94 296.02 419.53 298.85 C 420.02 299.02 421.00 299.35 421.49 299.52 C 421.53 300.90 421.61 302.28 421.72 303.66 C 421.05 303.61 419.71 303.52 419.04 303.47 C 419.09 302.92 419.20 301.81 419.26 301.25 C 415.75 301.25 412.25 301.25 408.74 301.25 C 408.80 301.81 408.91 302.92 408.96 303.47 C 408.28 303.52 406.92 303.61 406.23 303.66 C 406.37 302.40 406.49 301.15 406.59 299.90 C 409.95 297.73 411.09 293.65 412.24 290.06 M 413.69 293.10 C 412.77 295.15 411.85 297.20 410.93 299.25 C 412.87 299.25 414.81 299.25 416.75 299.26 C 415.73 297.21 414.70 295.16 413.69 293.10 Z" />
<path fill="#000000" opacity="1.00" d=" M 424.14 290.00 C 424.82 290.00 426.18 289.99 426.86 289.99 C 426.78 292.46 426.74 294.93 426.74 297.40 C 429.10 295.06 431.38 292.62 433.46 290.02 C 434.49 289.99 435.53 289.97 436.57 289.95 C 436.12 293.72 436.17 297.53 436.41 301.31 C 435.73 301.29 434.38 301.26 433.71 301.24 C 433.73 298.77 433.75 296.30 433.75 293.84 C 431.42 296.22 429.16 298.66 427.01 301.20 C 426.07 301.24 425.14 301.28 424.21 301.32 C 424.27 297.55 424.28 293.77 424.14 290.00 Z" />
<path fill="#000000" opacity="1.00" d=" M 440.50 289.98 C 441.25 289.98 442.75 289.98 443.50 289.98 C 443.29 292.45 443.27 294.93 443.19 297.41 C 445.52 295.10 447.77 292.69 449.73 290.05 C 450.77 290.02 451.81 289.99 452.87 289.97 C 452.71 293.74 452.71 297.51 452.84 301.28 C 451.96 301.28 451.08 301.28 450.20 301.28 C 450.23 298.73 450.25 296.18 450.26 293.64 C 447.94 296.13 445.63 298.63 443.45 301.25 C 442.75 301.26 441.34 301.29 440.64 301.30 C 440.81 297.53 440.83 293.74 440.50 289.98 Z" />
<path fill="#000000" opacity="1.00" d=" M 358.25 295.41 C 359.99 295.44 361.75 295.44 363.50 295.44 C 363.55 295.98 363.63 297.07 363.67 297.61 C 361.79 297.60 359.91 297.62 358.04 297.68 C 358.09 297.12 358.19 295.98 358.25 295.41 Z" />
</g>
</svg>
