<?xml version="1.0" encoding="UTF-8" ?>
<!DOCTYPE svg PUBLIC "-//W3C//DTD SVG 1.1//EN" "http://www.w3.org/Graphics/SVG/1.1/DTD/svg11.dtd">
<svg width="800pt" height="240pt" viewBox="0 0 800 240" version="1.1" xmlns="http://www.w3.org/2000/svg">
<g id="#000000ff">
<path fill="#000000" opacity="1.00" d=" M 741.04 30.08 C 741.84 30.08 743.43 30.07 744.23 30.07 C 744.26 45.39 744.26 60.72 744.23 76.04 C 743.43 76.04 741.83 76.04 741.02 76.04 C 740.14 72.07 737.85 67.18 733.11 67.16 C 708.08 67.08 683.05 67.14 658.02 67.14 C 657.99 78.36 657.98 89.58 658.02 100.81 C 673.70 100.80 689.37 100.85 705.04 100.78 C 709.70 100.64 711.89 95.81 713.01 91.96 C 713.76 91.95 715.24 91.95 715.98 91.95 C 716.01 106.98 716.01 122.02 715.98 137.05 C 715.24 137.05 713.76 137.04 713.01 137.04 C 711.89 133.17 709.73 128.36 705.06 128.18 C 689.38 128.06 673.70 128.15 658.02 128.13 C 657.99 140.63 657.96 153.13 658.04 165.63 C 684.33 165.58 710.62 165.70 736.91 165.56 C 741.43 165.29 743.70 160.77 745.01 157.02 C 745.76 157.02 747.24 157.01 747.98 157.01 C 748.01 172.13 748.02 187.25 747.97 202.37 C 747.24 202.37 745.76 202.36 745.02 202.35 C 743.81 198.62 741.47 194.21 736.99 194.09 C 698.32 194.02 659.64 194.10 620.96 194.04 C 620.90 192.78 620.90 191.52 620.97 190.27 C 625.22 188.80 628.19 184.62 627.98 180.09 C 628.03 137.72 627.99 95.34 627.99 52.97 C 628.38 48.36 625.27 44.19 620.97 42.76 C 620.90 41.41 620.90 40.06 620.96 38.71 C 658.32 38.65 695.68 38.72 733.05 38.67 C 737.72 38.75 740.10 34.00 741.04 30.08 Z" />
<path fill="#000000" opacity="1.00" d=" M 493.43 46.38 C 509.33 35.86 529.42 33.88 547.92 36.53 C 561.79 38.51 574.04 45.91 585.39 53.71 C 588.86 56.00 592.00 58.94 595.98 60.35 C 597.79 60.21 599.05 58.78 600.54 57.92 C 601.34 58.70 602.12 59.51 602.89 60.33 C 596.63 71.71 590.31 83.07 583.96 94.40 C 583.05 93.32 581.31 92.56 581.46 90.92 C 581.33 82.83 575.53 76.12 568.76 72.36 C 556.77 65.62 542.34 63.60 528.85 65.90 C 516.84 67.98 506.20 75.50 499.48 85.57 C 490.32 98.67 488.36 115.79 491.93 131.13 C 495.59 146.54 506.85 160.58 522.14 165.58 C 534.14 169.42 547.37 168.60 559.17 164.42 C 566.19 161.74 573.43 158.29 577.95 152.03 C 580.37 148.75 581.39 144.71 581.60 140.70 C 582.35 139.97 583.14 139.28 583.97 138.62 C 590.30 149.88 596.67 161.13 602.88 172.45 C 602.11 173.26 601.33 174.06 600.54 174.85 C 598.86 173.94 597.11 171.60 595.05 172.81 C 583.35 178.82 573.98 189.00 561.12 192.80 C 543.16 197.90 523.45 198.48 505.75 192.05 C 488.14 185.62 474.48 170.87 467.14 153.88 C 459.70 136.56 458.57 117.04 461.40 98.57 C 464.60 77.89 475.88 58.11 493.43 46.38 Z" />
<path fill="#000000" opacity="1.00" d=" M 348.02 38.70 C 364.07 38.68 380.12 38.67 396.17 38.71 C 396.21 40.05 396.21 41.39 396.18 42.74 C 393.03 44.36 390.35 47.25 390.07 50.92 C 389.74 55.98 391.99 60.72 393.82 65.31 C 409.77 102.99 425.60 140.73 441.62 178.37 C 443.64 183.63 447.02 189.08 452.99 190.26 C 453.02 191.52 453.01 192.78 452.98 194.04 C 436.06 194.07 419.13 194.08 402.21 194.04 C 402.17 192.79 402.15 191.54 402.16 190.29 C 406.54 189.64 409.93 185.45 409.08 180.98 C 406.65 172.14 403.01 163.69 399.72 155.15 C 380.77 155.10 361.82 155.12 342.87 155.14 C 339.67 163.65 336.16 172.10 334.02 180.95 C 333.17 185.39 336.41 189.46 340.70 190.29 C 340.82 191.54 340.92 192.79 341.00 194.04 C 325.93 194.07 310.85 194.08 295.77 194.04 C 295.73 192.80 295.72 191.55 295.75 190.31 C 299.50 190.16 302.76 187.47 303.83 183.91 C 319.40 145.28 334.44 106.44 349.80 67.72 C 351.98 62.35 354.24 56.77 353.97 50.86 C 353.72 47.23 350.97 44.52 348.01 42.76 C 347.97 41.40 347.97 40.05 348.02 38.70 M 351.25 133.49 C 364.34 133.50 377.43 133.51 390.51 133.49 C 383.93 116.96 377.22 100.49 370.64 83.97 C 364.13 100.45 357.69 116.98 351.25 133.49 Z" />
</g>
<g id="#3ea8f8ff">
<path fill="#3ea8f8" opacity="1.00" d=" M 175.52 34.10 C 184.97 49.60 193.68 65.66 203.05 81.25 C 194.59 81.45 186.11 81.24 177.65 81.35 C 170.85 92.95 164.17 104.61 157.44 116.25 C 179.36 116.23 201.29 116.20 223.22 116.26 C 228.48 125.59 234.11 134.73 239.17 144.16 C 207.56 144.24 175.92 143.94 144.34 144.31 C 139.55 153.77 134.72 163.22 129.89 172.67 C 171.88 172.85 213.88 172.67 255.88 172.76 C 260.89 181.27 265.63 189.95 270.83 198.35 C 226.23 198.64 181.60 198.39 136.99 198.48 C 118.11 198.35 99.17 198.73 80.32 198.29 C 90.54 181.37 100.18 164.08 110.16 147.01 C 131.96 109.38 153.65 71.68 175.52 34.10 Z" />
</g>
</svg>
