<?xml version="1.0" encoding="UTF-8" ?>
<!DOCTYPE svg PUBLIC "-//W3C//DTD SVG 1.1//EN" "http://www.w3.org/Graphics/SVG/1.1/DTD/svg11.dtd">
<svg width="800pt" height="240pt" viewBox="0 0 800 240" version="1.1" xmlns="http://www.w3.org/2000/svg">
<g id="#444444ff">
<path fill="#444444" opacity="1.00" d=" M 741.06 30.07 C 741.86 30.07 743.45 30.06 744.25 30.06 C 744.25 45.39 744.26 60.73 744.24 76.06 C 743.45 76.06 741.85 76.05 741.05 76.05 C 740.09 72.07 737.84 67.10 733.03 67.17 C 708.02 67.05 683.01 67.16 658.01 67.12 C 658.00 78.35 657.99 89.59 658.01 100.82 C 673.70 100.77 689.40 100.90 705.10 100.76 C 709.76 100.63 711.85 95.76 713.04 91.95 C 713.78 91.95 715.25 91.94 715.99 91.94 C 716.00 106.98 716.00 122.02 715.99 137.06 C 715.26 137.06 713.78 137.05 713.04 137.05 C 711.85 133.18 709.71 128.27 704.97 128.19 C 689.32 128.03 673.66 128.18 658.01 128.12 C 658.00 140.63 657.97 153.13 658.02 165.64 C 684.04 165.59 710.07 165.67 736.09 165.60 C 740.99 165.84 743.68 161.03 745.03 157.01 C 745.77 157.01 747.25 157.00 748.00 157.00 C 748.00 172.12 748.01 187.25 747.99 202.38 C 747.25 202.37 745.77 202.36 745.03 202.35 C 743.78 198.69 741.56 194.25 737.13 194.12 C 698.40 193.97 659.66 194.11 620.93 194.06 C 620.93 192.80 620.94 191.55 620.96 190.31 C 625.19 188.74 628.23 184.64 627.97 180.05 C 628.03 137.68 628.00 95.31 627.99 52.94 C 628.38 48.31 625.22 44.22 620.96 42.72 C 620.94 41.38 620.93 40.04 620.94 38.69 C 656.95 38.69 692.96 38.67 728.97 38.70 C 731.53 38.60 734.39 39.12 736.66 37.60 C 739.24 35.93 740.14 32.82 741.06 30.07 Z" />
<path fill="#444444" opacity="1.00" d=" M 480.58 57.59 C 490.74 45.78 505.46 38.32 520.85 36.35 C 536.46 34.38 553.05 35.44 567.24 42.77 C 575.08 46.66 582.41 51.50 589.48 56.63 C 591.52 58.07 593.59 59.56 596.00 60.35 C 597.75 60.11 599.10 58.84 600.55 57.92 C 601.33 58.72 602.12 59.52 602.91 60.33 C 596.61 71.71 590.30 83.09 583.95 94.44 C 582.69 93.23 581.18 92.03 581.37 90.09 C 580.97 82.29 575.24 75.98 568.72 72.33 C 557.11 65.80 543.22 63.78 530.11 65.67 C 518.38 67.41 507.68 74.21 500.75 83.79 C 491.42 95.94 488.64 112.12 491.10 127.02 C 493.40 141.92 502.56 155.95 516.03 163.01 C 528.58 169.41 543.65 169.26 556.90 165.19 C 564.33 162.64 571.97 159.32 577.10 153.14 C 580.04 149.68 581.41 145.19 581.58 140.70 C 582.37 140.00 583.17 139.30 583.98 138.61 C 590.29 149.89 596.67 161.13 602.89 172.46 C 602.13 173.25 601.37 174.05 600.61 174.84 C 598.94 173.94 597.09 171.70 595.07 172.81 C 583.33 178.79 573.97 189.05 561.07 192.80 C 543.34 197.87 523.90 198.44 506.37 192.28 C 489.68 186.39 476.40 173.00 468.71 157.28 C 460.46 140.51 458.71 121.21 460.80 102.83 C 462.69 86.24 469.26 70.01 480.58 57.59 Z" />
<path fill="#444444" opacity="1.00" d=" M 348.00 38.69 C 364.06 38.69 380.12 38.68 396.18 38.69 C 396.18 40.03 396.17 41.37 396.17 42.71 C 393.05 44.40 390.30 47.26 390.07 50.98 C 389.77 56.76 392.57 62.07 394.66 67.30 C 410.43 104.53 426.03 141.82 441.91 179.00 C 443.83 184.12 447.35 189.06 452.99 190.31 C 452.99 191.56 452.99 192.81 453.00 194.06 C 436.06 194.06 419.13 194.07 402.20 194.05 C 402.18 192.81 402.17 191.57 402.17 190.33 C 406.51 189.56 410.00 185.47 409.05 180.94 C 406.69 172.10 402.97 163.68 399.74 155.13 C 380.78 155.11 361.83 155.14 342.88 155.11 C 339.72 163.61 336.15 172.03 334.06 180.87 C 333.07 185.37 336.43 189.40 340.70 190.32 C 340.80 191.55 340.91 192.77 341.01 194.00 C 325.93 194.00 310.84 194.01 295.75 193.99 C 295.75 192.78 295.75 191.57 295.75 190.36 C 299.50 190.08 302.73 187.49 303.84 183.91 C 318.88 146.54 333.44 108.98 348.30 71.53 C 350.79 64.88 354.29 58.25 353.96 50.94 C 353.80 47.25 350.94 44.56 348.01 42.73 C 348.00 41.38 348.00 40.04 348.00 38.69 M 351.24 133.49 C 364.33 133.50 377.43 133.51 390.52 133.49 C 383.92 116.98 377.25 100.50 370.64 84.00 C 364.11 100.47 357.70 116.99 351.24 133.49 Z" />
</g>
<g id="#3ea8f8ff">
<path fill="#3ea8f8" opacity="1.00" d=" M 175.54 34.01 C 184.89 49.66 193.74 65.61 203.04 81.28 C 194.57 81.39 186.10 81.28 177.63 81.34 C 170.87 92.96 164.16 104.61 157.43 116.24 C 179.38 116.24 201.32 116.17 223.26 116.28 C 228.48 125.62 234.08 134.75 239.21 144.14 C 207.56 144.24 175.90 143.97 144.25 144.28 C 139.63 153.84 134.66 163.22 129.87 172.70 C 171.87 172.81 213.87 172.70 255.88 172.75 C 260.87 181.30 265.69 189.95 270.82 198.42 C 207.32 198.50 143.83 198.55 80.34 198.39 C 112.24 143.70 143.73 88.76 175.54 34.01 Z" />
</g>
</svg>
